<svg width="38" height="37" viewBox="0 0 38 37" fill="none" xmlns="http://www.w3.org/2000/svg">
<path d="M19.0042 9.01367C13.6126 9.01367 9.26369 13.2491 9.26369 18.5C9.26369 23.7509 13.6126 27.9863 19.0042 27.9863C24.3959 27.9863 28.7448 23.7509 28.7448 18.5C28.7448 13.2491 24.3959 9.01367 19.0042 9.01367ZM19.0042 24.6674C15.52 24.6674 12.6716 21.9015 12.6716 18.5C12.6716 15.0985 15.5115 12.3326 19.0042 12.3326C22.4969 12.3326 25.3369 15.0985 25.3369 18.5C25.3369 21.9015 22.4885 24.6674 19.0042 24.6674ZM31.4152 8.62563C31.4152 9.8558 30.3979 10.8383 29.1432 10.8383C27.8801 10.8383 26.8713 9.84754 26.8713 8.62563C26.8713 7.40372 27.8886 6.41298 29.1432 6.41298C30.3979 6.41298 31.4152 7.40372 31.4152 8.62563ZM37.8665 10.8713C37.7224 7.90734 37.0272 5.28188 34.7977 3.11877C32.5766 0.955651 29.8808 0.278646 26.8374 0.130035C23.7007 -0.0433449 14.2993 -0.0433449 11.1626 0.130035C8.12772 0.270389 5.4319 0.947395 3.20234 3.11051C0.972783 5.27362 0.286113 7.89908 0.133519 10.863C-0.0445064 13.9178 -0.0445064 23.0739 0.133519 26.1287C0.277635 29.0927 0.972783 31.7181 3.20234 33.8812C5.4319 36.0443 8.11924 36.7214 11.1626 36.87C14.2993 37.0433 23.7007 37.0433 26.8374 36.87C29.8808 36.7296 32.5766 36.0526 34.7977 33.8812C37.0187 31.7181 37.7139 29.0927 37.8665 26.1287C38.0445 23.0739 38.0445 13.9261 37.8665 10.8713ZM33.8143 29.4064C33.153 31.0246 31.873 32.2713 30.2029 32.9235C27.7021 33.8895 21.7679 33.6666 19.0042 33.6666C16.2406 33.6666 10.2979 33.8812 7.80558 32.9235C6.144 32.2795 4.86392 31.0329 4.1942 29.4064C3.20234 26.9708 3.43123 21.1915 3.43123 18.5C3.43123 15.8085 3.21082 10.0209 4.1942 7.59361C4.85544 5.9754 6.13553 4.72872 7.80558 4.07648C10.3064 3.11051 16.2406 3.33343 19.0042 3.33343C21.7679 3.33343 27.7105 3.11877 30.2029 4.07648C31.8645 4.72046 33.1446 5.96714 33.8143 7.59361C34.8061 10.0292 34.5772 15.8085 34.5772 18.5C34.5772 21.1915 34.8061 26.9791 33.8143 29.4064Z" fill="black"/>
</svg>
